<?xml version="1.0" encoding="UTF-8"?>
<svg width="75px" height="75px" viewBox="0 0 75 75" version="1.1" xmlns="http://www.w3.org/2000/svg" xmlns:xlink="http://www.w3.org/1999/xlink">
    <title>Icon/Logo/chihuahua</title>
    <g id="Icon/Logo/chihuahua" stroke="none" stroke-width="1" fill="none" fill-rule="evenodd">
        <path d="M44,63 C44,63 41.6465138,65.706543 40.0003346,65.706543 C38.9028818,65.706543 37.56966,64.804362 36.0006693,63 C38.3206983,64.0068359 40.9871419,64.0068359 44,63 Z M65.9116517,15.4871148 C66.2298205,15.948174 66.327934,16.6511703 66.2059924,17.5961036 C66.3796191,18.9278495 66.5132387,19.8106934 66.6068511,20.2446353 C66.7472696,20.8955481 67.9184946,27.2655371 65.3953986,32.289309 C63.7111148,35.6429104 61.3859091,38.7298512 59.9711029,40.4872299 C59.9906374,40.8223329 60,41.1601512 60,41.5 C60,42.2528544 59.954054,42.995744 59.8646237,43.726383 C59.9532776,44.1368743 60,44.5629808 60,45 C60,48.3137085 57.3137085,51 54,51 C52.8992926,51 51.8678116,50.7036068 50.9810145,50.1862778 C51.2697361,49.9841195 51.4576271,49.6495951 51.4576271,49.2711864 C51.4576271,48.6533764 50.9567931,48.1525424 50.3389831,48.1525424 C49.9271097,48.1525424 49.5672257,48.3751353 49.3730667,48.7065854 L49.3369335,48.776001 C48.5009046,47.7448466 48,46.4309196 48,45 C48,41.6862915 50.6862915,39 54,39 C55.8761992,39 57.5512643,39.8611571 58.6514948,41.2097708 C57.2964651,39.2690519 55.046434,38 52.5,38 C48.3578644,38 45,41.3578644 45,45.5 C45,49.6421356 48.3578644,53 52.5,53 C54.216536,53 55.7983858,52.4233393 57.0623912,51.4531757 C54.9267953,54.7876901 51.7500387,57.4809916 47.9483283,59.1461689 C46.8554145,60.9998841 44.8375862,62.7447399 41.5618081,62.9652569 C38.612663,63.1111031 36.490772,62.7977695 35.1961352,62.025256 C34.3305863,61.5550486 33.5989418,61.0546039 33.0012017,60.5239219 C32.2234,59.5620516 31.834084,58.514403 31.834084,57.3808222 C31.834084,54.0877796 33.7904199,51.6972781 34.7066979,51.0944328 C35.6229758,50.4915874 38.899592,49.3906098 38.5707786,43.4908891 L38.5707786,43.4908891 L38.5522577,43.1590549 C38.3575643,39.6759451 38.2544914,37.9994026 38.2430389,38.1294274 L38.2430389,38.1294274 L38.242,38.14 L38.2468407,37.9192517 C38.3168346,35.5743485 39.0725322,34.4018969 40.5139337,34.4018969 C40.6846977,34.4018969 40.8471666,34.4183526 41.0013385,34.4513448 C40.6366804,34.1504483 40.1961841,34 39.6798497,34 C38.1869696,34 37.4296468,35.2576936 37.4078812,37.7730808 L37.4089548,37.7275305 C37.4207653,37.5934425 37.5300119,39.3805964 37.7366946,43.0889922 C38.0655079,48.9887129 34.7888918,50.0896906 33.8726138,50.6925359 C32.9563359,51.2953812 31,53.6858827 31,56.9789253 C31,58.0202158 31.3285043,58.9889968 31.9855128,59.8852682 C25.126247,57.6292822 19.9048993,52.1564664 18.4243889,45.4196766 C14.3288932,40.7632084 11.9132732,37.7451396 11.1773448,36.3645872 C10.0598377,34.2682183 8.59686835,30.4993654 8.16217345,27.7927966 C7.72747856,25.0862278 8.26828302,22.5575639 8.59686835,21.4675749 C8.81592524,20.7409155 8.93014687,19.6753331 8.93953325,18.2708276 C8.88066637,17.1528038 9.02826869,16.4822468 9.38234021,16.2591566 C9.73641173,16.0360663 10.5300267,15.9570085 11.7631852,16.021983 C15.1775884,16.084253 18.4742578,17.0621033 21.6531934,18.9555339 C24.5182595,20.6620182 26.519601,22.7055285 27.6572178,25.0860647 C30.9280773,23.1332039 34.8215219,22 39,22 C42.0784569,22 45.0022012,22.615089 47.6364763,23.7201359 C49.5331874,20.7083202 51.5734741,18.7125103 53.7574664,17.7317227 C56.1879257,16.6402517 59.2262045,15.7582878 62.8723027,15.0858311 C64.5803666,14.8922944 65.5934829,15.0260557 65.9116517,15.4871148 Z M40.4724332,54 C38.9050569,54.0678329 37.9212787,54.2113126 37.5210986,54.430439 C36.9208284,54.7591287 36.7377752,55.6902048 37.5210986,56.3572142 C38.0433141,56.8018872 38.6563516,57.2332554 39.360211,57.6513189 C40.5403568,58.1871396 41.5416776,58.1054107 42.3641734,57.4061321 C43.1866691,56.7068535 43.7202841,56.1508012 43.9650182,55.7379751 C44.095427,55.1532437 43.8612218,54.7173983 43.2624024,54.430439 C42.6635831,54.1434797 41.7335933,54 40.4724332,54 Z M26.5,38 C22.3578644,38 19,41.3578644 19,45.5 C19,49.6421356 22.3578644,53 26.5,53 C30.6421356,53 34,49.6421356 34,45.5 C34,41.3578644 30.6421356,38 26.5,38 Z M27,39 C30.3137085,39 33,41.6862915 33,45 C33,48.3137085 30.3137085,51 27,51 C26.1463396,51 25.334318,50.8217232 24.5991352,50.5003696 C24.9950047,50.3276329 25.2711864,49.9333574 25.2711864,49.4745763 C25.2711864,48.8567662 24.7703524,48.3559322 24.1525424,48.3559322 C23.5347323,48.3559322 23.0338983,48.8567662 23.0338983,49.4745763 L23.035271,49.5035341 C21.7873177,48.4040319 21,46.7939599 21,45 C21,41.6862915 23.6862915,39 27,39 Z M55.5254237,40.4237288 C54.5144618,40.4237288 53.6949153,41.2432754 53.6949153,42.2542373 C53.6949153,43.2651992 54.5144618,44.0847458 55.5254237,44.0847458 C56.5363856,44.0847458 57.3559322,43.2651992 57.3559322,42.2542373 C57.3559322,41.2432754 56.5363856,40.4237288 55.5254237,40.4237288 Z M28.5254237,40.220339 C27.5144618,40.220339 26.6949153,41.0398855 26.6949153,42.0508475 C26.6949153,43.0618094 27.5144618,43.8813559 28.5254237,43.8813559 C29.5363856,43.8813559 30.3559322,43.0618094 30.3559322,42.0508475 C30.3559322,41.0398855 29.5363856,40.220339 28.5254237,40.220339 Z M11.4054242,19.2558594 L11.0287591,20.3021739 C11.102425,23.6572961 11.5129505,26.9990701 12.2603357,30.3274957 C13.007721,33.6559214 14.3110249,36.2987093 16.1702474,38.2558594 C16.1702474,38.2558594 16.3064646,37.8635281 16.578899,37.0788656 C16.1702474,35.9337738 12.5232065,29.5981075 13.2294293,21.9512587 C16.1702474,21.631472 20.854232,23.9056377 24.2826017,25.966803 C24.2826017,25.966803 25.0287591,25.4612845 25.0287591,25.4612845 C20.2534676,21.3153085 15.2015415,19.9289941 14.0040838,19.6442944 C13.2057787,19.4544945 12.3395588,19.3250162 11.4054242,19.2558594 L11.4054242,19.2558594 Z M64.128361,18.0139092 C63.2801366,18.1334104 57.1438311,19.7700392 55.3895465,20.8569533 C55.1556419,21.0018752 54.9222289,21.1424995 54.6888106,21.2814234 L53.9880427,21.6956911 C52.70145,22.4553527 51.399663,23.2421412 50,24.4881584 C50.2270627,24.6687236 50.5103772,24.8617426 50.8499433,25.0672155 C55.0422959,22.1317565 59.0790716,20.5827525 62.9602703,20.4202037 C63.0969731,26.5964416 61.81434,31.6959325 59.112371,35.7186763 L59.3523591,37 C61.0402134,35.5539643 62.434322,33.0550385 63.5346848,29.5032228 C64.6350476,25.951407 65.1156811,22.3842016 64.9765854,18.8016066 C64.9765854,18.1968075 64.6938439,17.9342417 64.128361,18.0139092 Z" id="Oval-2" fill="#C1C1D3"></path>
    </g>
</svg>