<svg xmlns="http://www.w3.org/2000/svg" width="75" height="75"><path fill="#c1c1d3" fill-rule="evenodd" d="M29.729 17.205C17.632 21.856 16.524 33.77 13.055 39.333c-3.51 5.63-11.551 8.736-10.452 11.605 1.1 2.869 9.15-.212 15.52 1.618 6.295 1.81 15.077 9.92 27.174 5.269A21.682 21.682 0 0 0 57.975 44.8a1.005 1.005 0 0 0-.847-1.346.993.993 0 0 0-.982.543 17.151 17.151 0 0 1-9.207 8.355c-6.88 2.644-14.407.568-19.03-4.64a17.154 17.154 0 0 1-2.657-4.017c-.195-.41-.38-.826-.545-1.257a17.491 17.491 0 0 1-.435-1.3 197.03 197.03 0 0 1 12.59-5.324 197.31 197.31 0 0 1 12.688-4.411 143.5 143.5 0 0 1 7.017-1.976l.454-.115c.32-.08.65.091.766.4l.004.006c.07.182.128.366.193.55.42 1.187.733 2.384.94 3.586.09.524.665.81 1.134.559a92.044 92.044 0 0 0 4.745-2.724c5.29-3.26 8.223-6.03 7.621-7.599-.602-1.567-4.63-1.659-10.74-.538a96.516 96.516 0 0 0-6.417 1.425 156.83 156.83 0 0 0-7.376 2.096 203.73 203.73 0 0 0-12.685 4.42 205.71 205.71 0 0 0-11.643 4.88c-.043-6.971 4.164-13.558 11.043-16.204a17.114 17.114 0 0 1 12.425.038.992.992 0 0 0 1.091-.257 1.007 1.007 0 0 0-.27-1.567 21.642 21.642 0 0 0-18.122-1.178"/></svg>