<?xml version="1.0" encoding="UTF-8"?>
<svg width="75px" height="75px" viewBox="0 0 75 75" version="1.1" xmlns="http://www.w3.org/2000/svg" xmlns:xlink="http://www.w3.org/1999/xlink">
    <title>Icon/Logo/Juno</title>
    <g id="Icon/Logo/Juno" stroke="none" stroke-width="1" fill="none" fill-rule="evenodd">
        <path d="M35.1916063,33.3603086 C32.4476523,36.0256802 29.6524094,38.7339034 26.8657147,41.4506969 C26.2389989,42.2617765 25.1771824,42.5995733 24.198694,42.2991592 C23.3596527,42.0784668 22.7035776,41.4228219 22.4807325,40.5823244 C22.2578874,39.7418269 22.50264,38.8461001 23.1216279,38.2368244 C23.5661314,37.6883235 24.07902,37.2598072 24.5919086,36.7884392 C26.9853887,34.5173027 29.3361281,32.2033145 31.8065415,29.7950528 C31.4299802,29.5745546 30.9905404,29.487042 30.5585126,29.5465133 C26.7973296,29.5465133 23.0275983,29.5465133 19.2664153,29.5465133 C17.5567866,29.5465133 16.8729351,29.066575 16.505365,27.7895963 C16.2407411,27.0605084 16.3509694,26.2475482 16.8001152,25.6157424 C17.2492611,24.9839367 17.979782,24.6142293 18.7535267,24.6271458 C21.5316733,24.5842942 24.3098198,24.6271458 27.0794183,24.6271458 L31.6441268,24.6271458 C30.6525422,23.581566 29.7977279,22.6388301 28.8916247,21.7475161 C27.0366776,19.8877552 25.1389897,18.0794163 23.2840426,16.2110851 C22.7138381,15.7401813 22.3885204,15.0345939 22.4001657,14.2940286 C22.4118111,13.5534632 22.7591523,12.8585083 23.3438796,12.4058601 C23.8289953,11.9756619 24.4682245,11.7626127 25.1136819,11.8160011 C25.7591393,11.8693895 26.3549007,12.1845899 26.763137,12.6886809 C29.230701,15.156935 31.6897169,17.6366161 34.1401847,20.1277244 C34.4393697,20.4276858 34.6787177,20.7876395 34.994999,21.1647339 C35.1967486,20.8340635 35.2669395,20.4393627 35.1916063,20.0591618 C35.1916063,16.9309926 35.1916063,13.8113937 35.1916063,10.6832245 C35.1916063,9.13199537 36.0464206,8.01785291 37.4483161,8.01785291 C38.1159925,7.93377591 38.7866479,8.14939014 39.2810502,8.60707292 C39.7754525,9.0647557 40.0432079,9.71785599 40.0127591,10.3918334 C40.1153369,13.4600103 40.0725961,16.5196169 40.0811443,19.5877938 C40.0811443,19.9820288 40.0811443,20.3762638 40.0811443,20.7704989 C41.3975584,19.5278015 42.7225206,18.3965184 43.9107125,17.1195397 C45.439481,15.3641432 47.0967197,13.7255216 48.8686356,12.2173129 C49.8292316,11.5663716 51.1192121,11.7116894 51.9117747,12.560126 C52.7180951,13.5179168 52.7180951,14.9190515 51.9117747,15.8768424 C50.561168,17.3252276 49.1678207,18.7307611 47.7830214,20.1620057 L44.1671568,23.8472461 C43.9620014,24.0529339 43.7739422,24.2843328 43.4491128,24.6357162 L44.5261788,24.6357162 L56.1003649,24.6357162 C57.0819815,24.5864472 57.9938657,25.1438342 58.3998155,26.0412497 C58.7909159,26.8427793 58.6913443,27.7978196 58.1433712,28.5009334 C57.5836194,29.227744 56.6854784,29.6080877 55.7755355,29.5036616 L43.6457201,29.5036616 C43.6457201,29.932178 43.9534532,30.0693032 44.1500605,30.2664207 C46.7145035,32.8375187 49.2789465,35.4086167 51.7750044,37.9797146 C52.6111378,38.6849204 52.8766954,39.8620117 52.4246633,40.8593444 C51.9739904,41.8040968 50.9968246,42.3803919 49.9542498,42.3162999 C49.2925033,42.2731384 48.6761089,41.9641414 48.2446212,41.4592672 C45.8112497,38.9453048 43.3693301,36.4256287 40.9188623,33.9002392 C40.7051588,33.6774107 40.5170996,33.4374415 40.3290404,33.2317537 C39.9187296,33.4203009 40.0554999,33.7031217 40.0554999,33.9173798 C40.0554999,40.9107663 40.0554999,47.9127231 40.0554999,54.9061096 C40.0554999,55.6260171 40.2521072,55.9002675 40.9957956,55.8659862 C42.1326987,55.8059939 43.2781499,55.8659862 44.415053,55.8659862 C45.0750967,55.8160286 45.7261605,56.0433421 46.2124808,56.4935432 C46.6988012,56.9437443 46.9766292,57.5763332 46.979496,58.2399667 C46.991031,58.9004182 46.7362005,59.5375812 46.2727482,60.0070763 C45.8092958,60.4765715 45.1764569,60.7386522 44.5176307,60.7339317 C43.4100288,60.7939158 42.3000048,60.7939158 41.1924029,60.7339317 C40.3375886,60.6910801 40.0213073,60.9224789 40.0811443,61.8052225 C40.1452537,62.9813365 40.1452537,64.1600831 40.0811443,65.3361971 C39.9785666,67.3245128 38.4228045,68.4729366 36.7730128,67.8130215 C35.8186054,67.5043414 35.1769792,66.6072108 35.1916063,65.6018772 C35.1916063,64.2991876 35.1488656,63.0307792 35.1916063,61.7023786 C35.1916063,60.9824712 35.0120953,60.7082207 34.2598587,60.742502 C33.0631186,60.793924 31.8492823,60.793924 30.6525422,60.742502 C28.6950174,60.6482284 27.5324699,59.0712883 28.1735806,57.4172153 C28.4825443,56.4683656 29.3751638,55.8345978 30.3704535,55.8574159 C31.7296083,55.8574159 33.0802149,55.8574159 34.4393697,55.8574159 C35.0035472,55.8574159 35.1830582,55.6602984 35.1830582,55.1032271 C35.1830582,47.7927386 35.1830582,40.533672 35.1830582,33.3603086" id="Path" fill="#C1C1D3"></path>
    </g>
</svg>
