<svg xmlns="http://www.w3.org/2000/svg" width="50" height="51" fill="none"><path fill="#e0daee" d="M18.622 36.31c.075 0 .113-.037.113-.113 0-.076-.038-.114-.113-.114-.075 0-.113.038-.113.114 0 .076.038.114.113.114zM10.118 36.501c.15 0 .3-.152.3-.304s-.15-.304-.3-.304-.301.152-.301.304c0 .19.112.304.3.304zM27.126 36.31c.075 0 .113-.037.113-.113 0-.076-.038-.114-.113-.114-.075 0-.113.038-.113.114 0 .076.038.114.113.114zM14.37 36.387c.113 0 .188-.076.188-.19s-.075-.19-.188-.19-.188.076-.188.19.075.19.188.19zM31.378 36.691a.5.5 0 0 0 .49-.494.5.5 0 0 0-.49-.494.5.5 0 0 0-.489.494.5.5 0 0 0 .49.494zM39.882 36.88a.678.678 0 0 0 .678-.683.678.678 0 1 0-1.355 0c0 .38.301.684.677.684zM35.63 37.071c.49 0 .866-.38.866-.874a.856.856 0 0 0-.866-.874c-.489 0-.865.38-.865.874a.88.88 0 0 0 .865.874zM5.865 36.615a.42.42 0 0 0 .414-.418.42.42 0 0 0-.414-.418.42.42 0 0 0-.413.418c0 .266.188.418.413.418zM44.135 36.995c.451 0 .79-.342.79-.798a.775.775 0 0 0-.79-.798.775.775 0 0 0-.79.798c0 .418.376.798.79.798zM18.622 32.017c.075 0 .113-.038.113-.114 0-.076-.038-.114-.113-.114-.075 0-.113.038-.113.114 0 .038.038.114.113.114zM10.118 32.32a.42.42 0 0 0 .414-.417.42.42 0 0 0-.414-.418.42.42 0 0 0-.414.418c0 .266.188.418.414.418zM27.126 32.397a.5.5 0 0 0 .49-.494.5.5 0 0 0-.49-.494.5.5 0 0 0-.49.494.5.5 0 0 0 .49.494zM22.874 32.017c.075 0 .113-.038.113-.114 0-.076-.038-.114-.113-.114-.075 0-.113.038-.113.114 0 .038.038.114.113.114zM14.37 32.207a.298.298 0 0 0 .3-.304c0-.19-.15-.304-.3-.304s-.301.152-.301.304.113.304.3.304zM31.378 32.777c.49 0 .866-.38.866-.874a.856.856 0 0 0-.866-.874c-.489 0-.865.38-.865.874a.88.88 0 0 0 .865.874zM39.882 32.397a.5.5 0 0 0 .49-.494.5.5 0 0 0-.49-.494.5.5 0 0 0-.489.494.5.5 0 0 0 .49.494zM35.63 32.397a.5.5 0 0 0 .49-.494.5.5 0 0 0-.49-.494.5.5 0 0 0-.489.494.5.5 0 0 0 .49.494zM5.865 32.473a.582.582 0 0 0 .565-.57.582.582 0 0 0-.565-.57.582.582 0 0 0-.564.57c-.038.342.226.57.564.57zM44.135 32.625a.718.718 0 0 0 .714-.722.718.718 0 0 0-.714-.722.718.718 0 0 0-.715.722c0 .418.338.722.715.722zM18.622 27.761c.075 0 .113-.038.113-.114 0-.076-.038-.114-.113-.114-.075 0-.113.038-.113.114 0 .076.038.114.113.114zM10.118 28.141a.5.5 0 0 0 .489-.494.5.5 0 0 0-.49-.494.5.5 0 0 0-.489.494.5.5 0 0 0 .49.494zM27.126 28.521c.49 0 .866-.38.866-.874a.856.856 0 0 0-.866-.874c-.49 0-.865.38-.865.874a.88.88 0 0 0 .865.874zM22.874 28.141a.5.5 0 0 0 .49-.494.5.5 0 0 0-.49-.494.5.5 0 0 0-.49.494.5.5 0 0 0 .49.494zM14.37 27.951a.298.298 0 0 0 .3-.304c0-.19-.15-.304-.3-.304s-.301.152-.301.304.113.304.3.304zM31.378 28.141a.5.5 0 0 0 .49-.494.5.5 0 0 0-.49-.494.5.5 0 0 0-.489.494.5.5 0 0 0 .49.494zM39.882 28.141a.5.5 0 0 0 .49-.494.5.5 0 0 0-.49-.494.5.5 0 0 0-.489.494.5.5 0 0 0 .49.494zM35.63 27.951a.298.298 0 0 0 .301-.304c0-.152-.15-.304-.3-.304a.298.298 0 0 0-.302.304c0 .152.15.304.301.304zM5.865 28.331c.377 0 .64-.304.64-.684a.678.678 0 1 0-1.354 0c0 .38.338.684.714.684zM44.135 28.331a.678.678 0 0 0 .677-.684.678.678 0 1 0-1.355 0c0 .38.301.684.678.684zM18.622 23.847a.5.5 0 0 0 .489-.494c0-.266-.226-.532-.49-.532a.5.5 0 0 0-.488.494c0 .266.225.532.489.532zM10.118 23.847a.5.5 0 0 0 .489-.494c0-.266-.226-.532-.49-.532a.5.5 0 0 0-.489.494c0 .266.226.532.49.532zM27.126 23.847a.5.5 0 0 0 .49-.494.5.5 0 0 0-.49-.494.5.5 0 0 0-.49.494.5.5 0 0 0 .49.494zM22.874 24.227c.49 0 .865-.38.865-.874a.856.856 0 0 0-.865-.874c-.49 0-.866.38-.866.874s.377.874.866.874zM14.37 23.657a.298.298 0 0 0 .3-.304c0-.152-.15-.304-.3-.304s-.301.152-.301.304.113.304.3.304zM31.378 23.467c.075 0 .113-.038.113-.114 0-.076-.038-.114-.113-.114-.075 0-.113.038-.113.114 0 .076.075.114.113.114zM39.882 23.847a.5.5 0 0 0 .49-.494.5.5 0 0 0-.49-.494.5.5 0 0 0-.489.494.5.5 0 0 0 .49.494zM35.63 23.657a.298.298 0 0 0 .301-.304c0-.152-.15-.304-.3-.304a.298.298 0 0 0-.302.304c0 .152.15.304.301.304zM5.865 24.037a.678.678 0 0 0 .678-.684.678.678 0 1 0-1.355 0c0 .38.301.684.677.684zM44.135 24.037a.678.678 0 0 0 .677-.684.678.678 0 1 0-1.355 0c.038.38.339.684.678.684zM18.622 19.933c.489 0 .865-.38.865-.874a.856.856 0 0 0-.865-.874c-.49 0-.866.38-.866.874s.377.874.866.874zM10.118 19.553a.5.5 0 0 0 .489-.494.5.5 0 0 0-.49-.494.5.5 0 0 0-.489.494.5.5 0 0 0 .49.494zM22.874 19.553a.5.5 0 0 0 .49-.494.5.5 0 0 0-.49-.494.5.5 0 0 0-.49.494.5.5 0 0 0 .49.494zM14.37 19.553a.5.5 0 0 0 .489-.494.5.5 0 0 0-.49-.494.5.5 0 0 0-.488.494.5.5 0 0 0 .489.494zM31.378 19.173c.075 0 .113-.038.113-.114 0-.076-.038-.114-.113-.114-.075 0-.113.038-.113.114 0 .038.076.114.113.114zM39.882 19.477a.42.42 0 0 0 .414-.418.42.42 0 0 0-.414-.418.42.42 0 0 0-.414.418c.038.266.189.418.414.418zM35.63 19.363a.298.298 0 0 0 .301-.304c0-.152-.15-.304-.3-.304a.298.298 0 0 0-.302.304c0 .152.15.304.301.304zM5.865 19.781a.718.718 0 0 0 .715-.722.718.718 0 0 0-.715-.722c-.376 0-.714.342-.714.722 0 .418.3.722.714.722zM44.135 19.629a.582.582 0 0 0 .564-.57.582.582 0 0 0-.564-.57.582.582 0 0 0-.565.57c0 .304.263.57.565.57zM18.622 15.26a.5.5 0 0 0 .489-.495.5.5 0 0 0-.49-.494.5.5 0 0 0-.488.494.5.5 0 0 0 .489.494zM10.118 15.45a.678.678 0 0 0 .677-.685.678.678 0 1 0-1.355 0c0 .38.301.684.678.684zM22.874 14.88c.075 0 .113-.039.113-.115 0-.076-.038-.114-.113-.114-.075 0-.113.038-.113.114 0 .076.038.114.113.114zM14.37 15.639c.489 0 .865-.38.865-.874a.856.856 0 0 0-.865-.874c-.49 0-.866.38-.866.874s.377.874.866.874zM31.378 14.88c.075 0 .113-.039.113-.115 0-.076-.038-.114-.113-.114-.075 0-.113.038-.113.114 0 .076.075.114.113.114zM39.882 15.07c.15 0 .301-.153.301-.305s-.15-.304-.3-.304c-.151 0-.302.152-.302.304s.15.304.301.304zM35.63 14.955c.113 0 .188-.076.188-.19s-.075-.19-.188-.19-.188.076-.188.19.075.19.188.19zM5.865 15.563c.452 0 .79-.342.79-.798a.775.775 0 0 0-.79-.798.775.775 0 0 0-.79.798c0 .456.339.798.79.798zM44.135 15.183a.42.42 0 0 0 .413-.418.42.42 0 0 0-.413-.418c-.226 0-.377.19-.377.418 0 .228.188.418.377.418zM18.622 10.585c.075 0 .113-.038.113-.114 0-.076-.038-.114-.113-.114-.075 0-.113.038-.113.114 0 .076.038.114.113.114zM10.118 11.345c.489 0 .865-.38.865-.874a.856.856 0 0 0-.865-.874c-.49 0-.866.38-.866.874s.376.874.866.874zM14.37 10.965a.5.5 0 0 0 .489-.494.5.5 0 0 0-.49-.494.5.5 0 0 0-.488.494.5.5 0 0 0 .489.494zM31.378 10.585c.075 0 .113-.038.113-.114 0-.076-.038-.114-.113-.114-.075 0-.113.038-.113.114 0 .076.075.114.113.114zM39.882 10.7c.113 0 .189-.077.189-.19 0-.115-.076-.229-.189-.229-.112 0-.188.076-.188.19s.076.228.188.228zM35.63 10.585c.076 0 .113-.038.113-.114 0-.076-.037-.114-.113-.114-.075 0-.113.038-.113.114 0 .076.076.114.113.114zM5.865 9.597a.88.88 0 0 0-.865.874c0 .494.376.874.865.874.49 0 .866-.38.866-.874a.88.88 0 0 0-.866-.874zM44.135 10.775c.15 0 .3-.152.3-.304s-.15-.304-.3-.304c-.151 0-.302.152-.302.304s.151.304.302.304zM10.118 44.899c.075 0 .112-.038.112-.114 0-.076-.037-.114-.112-.114-.076 0-.113.038-.113.114 0 .076.037.114.113.114zM39.882 45.279a.5.5 0 0 0 .49-.494.5.5 0 0 0-.49-.494.5.5 0 0 0-.489.494.5.5 0 0 0 .49.494zM35.63 44.899c.075 0 .113-.038.113-.114 0-.076-.038-.114-.113-.114-.075 0-.113.038-.113.114 0 .076.076.114.113.114zM5.865 44.975c.113 0 .189-.076.189-.19s-.076-.19-.189-.19c-.112 0-.188.076-.188.19s.076.19.188.19zM44.135 43.91a.88.88 0 0 0-.866.875c0 .494.376.874.866.874.489 0 .865-.38.865-.874a.856.856 0 0 0-.865-.874ZM10.118 40.68c.112 0 .188-.075.188-.19 0-.113-.076-.19-.188-.19-.113 0-.189.077-.189.19 0 .115.076.19.189.19zM14.37 40.605c.075 0 .113-.038.113-.114 0-.076-.038-.114-.113-.114-.076 0-.113.038-.113.114 0 .076.037.114.113.114zM31.378 40.605c.075 0 .113-.038.113-.114 0-.076-.038-.114-.113-.114-.075 0-.113.038-.113.114 0 .076.075.114.113.114zM39.882 41.365c.49 0 .866-.38.866-.874a.856.856 0 0 0-.866-.874c-.489 0-.865.38-.865.874a.88.88 0 0 0 .865.874zM35.63 40.985a.5.5 0 0 0 .49-.494.5.5 0 0 0-.49-.494.5.5 0 0 0-.489.494.5.5 0 0 0 .49.494zM5.865 40.795c.151 0 .302-.152.302-.304s-.151-.304-.302-.304c-.15 0-.3.152-.3.304 0 .19.112.304.3.304zM44.135 41.365A.88.88 0 0 0 45 40.49a.856.856 0 0 0-.865-.874c-.49 0-.866.38-.866.874a.88.88 0 0 0 .866.874zM10.118 6.71a.5.5 0 0 0 .489-.495.5.5 0 0 0-.49-.494c-.263 0-.489.19-.489.494a.5.5 0 0 0 .49.494zM14.37 6.33c.075 0 .113-.039.113-.115 0-.076-.038-.114-.113-.114-.076 0-.113.038-.113.114 0 .038.037.114.113.114zM39.882 6.33c.076 0 .113-.039.113-.115 0-.076-.037-.114-.113-.114-.075 0-.112.038-.112.114 0 .038.075.114.112.114zM5.865 7.051a.88.88 0 0 0 .866-.874c0-.494-.414-.836-.866-.836A.88.88 0 0 0 5 6.215c0 .494.376.836.865.836ZM44.135 6.405c.112 0 .188-.076.188-.19s-.076-.19-.188-.19c-.113 0-.189.076-.189.19s.076.19.189.19z" style="fill:#c1c1d3;fill-opacity:1;stroke-width:.80301"/></svg>