<?xml version="1.0" encoding="UTF-8"?>
<svg version="1.1" xmlns="http://www.w3.org/2000/svg" width="144" height="173">
<path d="M0 0 C0.99 0.33 1.98 0.66 3 1 C10.50498032 19.10024665 12.68682988 42.00160032 8 61 C14.03822912 53.5186721 16.19490906 47.53397168 17 38 C18.32 38 19.64 38 21 38 C26.11844005 52.86691937 29.45834842 66.22461065 26 82 C28.46446554 78.82449818 30.26637814 75.63235056 32 72 C33.485 72.495 33.485 72.495 35 73 C36.18730047 75.58725178 37.18753199 78.0742119 38.125 80.75 C38.38925781 81.46671875 38.65351562 82.1834375 38.92578125 82.921875 C43.03800974 94.27747043 43.93429235 106.41907365 39.12109375 117.7109375 C34.68451155 126.7696036 27.12344949 133.706612 18 138 C16.68 138 15.36 138 14 138 C12.4375 135.98828125 12.4375 135.98828125 11 133.3125 C6.49270886 125.17487499 6.49270886 125.17487499 -1 120 C-5.00666662 119.91652778 -6.54589919 120.60127734 -9.5625 123.25 C-12.72166451 127.38434069 -14.14607562 132.39019103 -15.7890625 137.26953125 C-16.18867187 138.17058594 -16.58828125 139.07164062 -17 140 C-17.99 140.33 -18.98 140.66 -20 141 C-32.88698868 132.78190394 -44.61578388 119.33396751 -48.4375 104.3125 C-50.43366674 92.15806253 -48.02332484 81.16809715 -41 71 C-38.8653494 68.45004773 -36.64296026 66.00984852 -34.37890625 63.57421875 C-19.07467668 47.01348429 -2.89342755 27.23232594 -1.25390625 4.03515625 C-1 1 -1 1 0 0 Z " fill="#6C0008" transform="translate(79,32)"/>
<path d="M0 0 C3 2 3 2 3.46875 4.15234375 C3.76428761 30.49213355 -11.60216434 59.94722507 -28 80 C-29.485 80.495 -29.485 80.495 -31 81 C-35.10536515 74.7105806 -33.80779747 63.93257094 -32.34765625 56.82421875 C-29.11290342 47.23102473 -23.39908246 39.29318169 -16.5 32 C-7.21843799 22.13774863 -2.83126721 13.03086336 0 0 Z " fill="#6B0206" transform="translate(73,11)"/>
<path d="M0 0 C0.66 0 1.32 0 2 0 C2.98171232 4.93997641 3.1917287 9.67331875 3.1875 14.6875 C3.18814453 15.47753418 3.18878906 16.26756836 3.18945312 17.08154297 C3.13437986 23.21094678 2.47133173 29.03585174 1 35 C7.03822912 27.5186721 9.19490906 21.53397168 10 12 C11.32 12 12.64 12 14 12 C19.11844005 26.86691937 22.45834842 40.22461065 19 56 C21.46446554 52.82449818 23.26637814 49.63235056 25 46 C26.485 46.495 26.485 46.495 28 47 C29.18730047 49.58725178 30.18753199 52.0742119 31.125 54.75 C31.38925781 55.46671875 31.65351562 56.1834375 31.92578125 56.921875 C36.03800974 68.27747043 36.93429235 80.41907365 32.12109375 91.7109375 C27.68451155 100.7696036 20.12344949 107.706612 11 112 C9.68 112 8.36 112 7 112 C5.4375 109.98828125 5.4375 109.98828125 4 107.3125 C-0.50729114 99.17487499 -0.50729114 99.17487499 -8 94 C-12.00666662 93.91652778 -13.54589919 94.60127734 -16.5625 97.25 C-19.72166451 101.38434069 -21.14607562 106.39019103 -22.7890625 111.26953125 C-23.18867187 112.17058594 -23.58828125 113.07164062 -24 114 C-25.485 114.495 -25.485 114.495 -27 115 C-38.2448868 107.82908038 -47.61070536 97.17346553 -53 85 C-53 84.34 -53 83.68 -53 83 C-52.01 83.33 -51.02 83.66 -50 84 C-49.731875 84.680625 -49.46375 85.36125 -49.1875 86.0625 C-46.47840464 92.76394642 -39.54076718 102.72961641 -33 106 C-33 106.66 -33 107.32 -33 108 C-30.66785852 109.20628008 -28.50357861 110.1654738 -26 111 C-25.74605469 110.24074219 -25.49210937 109.48148437 -25.23046875 108.69921875 C-24.88628906 107.70535156 -24.54210937 106.71148437 -24.1875 105.6875 C-23.85105469 104.70136719 -23.51460937 103.71523437 -23.16796875 102.69921875 C-22.03307159 100.07642966 -21.04093004 98.9067319 -19 97 C-18.505 95.515 -18.505 95.515 -18 94 C-14.29741529 91.72795938 -11.35191355 90.23841513 -7 91 C-2.71387519 93.36174224 0.23630575 95.96075455 3 100 C3 100.66 3 101.32 3 102 C3.99 102.33 4.98 102.66 6 103 C6.309375 103.825 6.61875 104.65 6.9375 105.5 C7.4634375 106.7375 7.4634375 106.7375 8 108 C10.04105639 108.88693303 10.04105639 108.88693303 12 109 C12 108.34 12 107.68 12 107 C13.175625 106.505 14.35125 106.01 15.5625 105.5 C23.6402819 101.42536665 28.07910878 94.35437703 31 86 C34.59700722 74.24333882 30.72801068 62.18403203 27 51 C24.12579877 53.71604715 24.12579877 53.71604715 22 57 C21.34 57 20.68 57 20 57 C19.67 58.32 19.34 59.64 19 61 C16.69 61.66 14.38 62.32 12 63 C12.29648438 62.41605469 12.59296875 61.83210938 12.8984375 61.23046875 C20.0357964 46.77858247 17.47820791 31.85405572 13 17 C12.79246094 17.845625 12.58492188 18.69125 12.37109375 19.5625 C10.38917108 26.85995585 8.28994281 33.34465771 2 38 C-0.72265625 38.703125 -0.72265625 38.703125 -3 39 C-2.125 32.125 -2.125 32.125 -1 31 C-0.84111908 28.71011219 -0.74861927 26.41556559 -0.68359375 24.12109375 C-0.66281265 23.4344313 -0.64203156 22.74776886 -0.62062073 22.04029846 C-0.55505857 19.83947065 -0.49620985 17.63852025 -0.4375 15.4375 C-0.39432108 13.94855486 -0.350707 12.45962227 -0.30664062 10.97070312 C-0.1993707 7.31393447 -0.09812228 3.65702682 0 0 Z " fill="#6D1E22" transform="translate(86,58)"/>
<path d="M0 0 C3 2 3 2 3.46875 4.15234375 C3.76428761 30.49213355 -11.60216434 59.94722507 -28 80 C-29.485 80.495 -29.485 80.495 -31 81 C-35.10536515 74.7105806 -33.80779747 63.93257094 -32.34765625 56.82421875 C-29.11290342 47.23102473 -23.39908246 39.29318169 -16.5 32 C-7.21843799 22.13774863 -2.83126721 13.03086336 0 0 Z M-2 16 C-2.66 17.11375 -3.32 18.2275 -4 19.375 C-4.37125 20.00148438 -4.7425 20.62796875 -5.125 21.2734375 C-6.15068348 22.97472667 -6.15068348 22.97472667 -6 25 C-7.98 25.99 -7.98 25.99 -10 27 C-10 27.66 -10 28.32 -10 29 C-10.99 29.33 -11.98 29.66 -13 30 C-14.33663603 31.52906046 -14.33663603 31.52906046 -15.5 33.375 C-16.71266903 35.20177706 -17.79898922 36.81186735 -19.40234375 38.3125 C-28.80201652 48.24076072 -31.28123526 60.32011584 -31.0703125 73.47265625 C-31.04710937 74.30667969 -31.02390625 75.14070313 -31 76 C-30.01 76 -29.02 76 -28 76 C-26.46296271 73.7470796 -26.46296271 73.7470796 -25 71 C-23.76213119 69.34502322 -22.51131072 67.69968131 -21.25 66.0625 C-16.60062109 59.72943057 -13.30219286 53.10853729 -10 46 C-9.58621094 45.11570312 -9.17242187 44.23140625 -8.74609375 43.3203125 C-6.90074303 39.27552162 -5.35292745 35.23917269 -4 31 C-3.74089844 30.37351562 -3.48179688 29.74703125 -3.21484375 29.1015625 C-1.31109564 24.47943918 -0.68758412 20.99865407 -1 16 C-1.33 16 -1.66 16 -2 16 Z " fill="#742428" transform="translate(73,11)"/>
<path d="M0 0 C0.66 0 1.32 0 2 0 C2.98171232 4.93997641 3.1917287 9.67331875 3.1875 14.6875 C3.18814453 15.47753418 3.18878906 16.26756836 3.18945312 17.08154297 C3.13437986 23.21094678 2.47133173 29.03585174 1 35 C7.03822912 27.5186721 9.19490906 21.53397168 10 12 C11.32 12 12.64 12 14 12 C14.81571218 14.56151683 15.62766131 17.12412628 16.4375 19.6875 C16.66759766 20.40873047 16.89769531 21.12996094 17.13476562 21.87304688 C18.82295077 27.23119973 20.14703037 32.14896543 20.0625 37.8125 C20.05347656 38.60269531 20.04445313 39.39289063 20.03515625 40.20703125 C20.02355469 40.79871094 20.01195313 41.39039063 20 42 C19.34 41.67 18.68 41.34 18 41 C17.40372453 38.46881062 16.91951693 35.99858088 16.5 33.4375 C16.24528601 31.97755003 15.98879375 30.51790912 15.73046875 29.05859375 C15.60720215 28.35718262 15.48393555 27.65577148 15.35693359 26.93310547 C14.7366654 23.5738144 13.89254359 20.29554555 13 17 C12.79246094 17.845625 12.58492187 18.69125 12.37109375 19.5625 C10.38917108 26.85995585 8.28994281 33.34465771 2 38 C-0.72265625 38.703125 -0.72265625 38.703125 -3 39 C-2.125 32.125 -2.125 32.125 -1 31 C-0.84111908 28.71011219 -0.74861927 26.41556559 -0.68359375 24.12109375 C-0.66281265 23.4344313 -0.64203156 22.74776886 -0.62062073 22.04029846 C-0.55505857 19.83947065 -0.49620985 17.63852025 -0.4375 15.4375 C-0.39432108 13.94855486 -0.350707 12.45962227 -0.30664062 10.97070312 C-0.1993707 7.31393447 -0.09812228 3.65702682 0 0 Z " fill="#762225" transform="translate(86,58)"/>
<path d="M0 0 C0.99 0.33 1.98 0.66 3 1 C6.08134832 8.63961877 7.62171943 16.79131165 8 25 C7.34 25 6.68 25 6 25 C5.67 24.34 5.34 23.68 5 23 C3.68 23 2.36 23 1 23 C0.67 22.01 0.34 21.02 0 20 C-4.03672072 26.56340418 -4.03672072 26.56340418 -7.625 33.375 C-9.07353555 36.14038605 -10.68671384 37.9260193 -13 40 C-13 35.40111839 -11.51550908 33.126725 -9.1875 29.375 C-4.09484414 20.78858417 -1.8010172 13.1696491 -1.2109375 3.15234375 C-1 1 -1 1 0 0 Z " fill="#6C0409" transform="translate(79,32)"/>
<path d="M0 0 C1.32 0 2.64 0 4 0 C4.81571218 2.56151683 5.62766131 5.12412628 6.4375 7.6875 C6.66759766 8.40873047 6.89769531 9.12996094 7.13476562 9.87304688 C8.82295077 15.23119973 10.14703037 20.14896543 10.0625 25.8125 C10.05347656 26.60269531 10.04445313 27.39289063 10.03515625 28.20703125 C10.02355469 28.79871094 10.01195313 29.39039062 10 30 C9.34 29.67 8.68 29.34 8 29 C7.40372453 26.46881062 6.91951693 23.99858088 6.5 21.4375 C6.24528601 19.97755003 5.98879375 18.51790912 5.73046875 17.05859375 C5.60720215 16.35718262 5.48393555 15.65577148 5.35693359 14.93310547 C4.7366654 11.5738144 3.89254359 8.29554555 3 5 C2.75765625 5.91523437 2.5153125 6.83046875 2.265625 7.7734375 C1.93046875 8.96195313 1.5953125 10.15046875 1.25 11.375 C0.92515625 12.55835937 0.6003125 13.74171875 0.265625 14.9609375 C-1 18 -1 18 -3.140625 19.4140625 C-4.06101562 19.70410156 -4.06101562 19.70410156 -5 20 C-4.71125 19.29875 -4.4225 18.5975 -4.125 17.875 C-1.76703572 11.84909129 -0.54268901 6.42658038 0 0 Z " fill="#893A40" transform="translate(96,70)"/>
<path d="M0 0 C0.99 0.33 1.98 0.66 3 1 C3.268125 1.680625 3.53625 2.36125 3.8125 3.0625 C6.52159536 9.76394642 13.45923282 19.72961641 20 23 C20 23.66 20 24.32 20 25 C22.93720508 26.52299523 25.9168649 27.80100302 29 29 C29 29.66 29 30.32 29 31 C28.01 31.33 27.02 31.66 26 32 C14.7551132 24.82908038 5.38929464 14.17346553 0 2 C0 1.34 0 0.68 0 0 Z " fill="#601015" transform="translate(33,141)"/>
<path d="M0 0 C1 3 1 3 -0.1796875 5.59375 C-0.73914062 6.5528125 -1.29859375 7.511875 -1.875 8.5 C-4.62950547 13.26593505 -6.12964816 16.57086793 -6.09765625 22.10546875 C-6.09443359 23.08837891 -6.09121094 24.07128906 -6.08789062 25.08398438 C-6.07951172 26.10814453 -6.07113281 27.13230469 -6.0625 28.1875 C-6.05798828 29.22326172 -6.05347656 30.25902344 -6.04882812 31.32617188 C-6.0370401 33.88417266 -6.02058515 36.44205733 -6 39 C-6.66 39 -7.32 39 -8 39 C-11.52971863 27.08719962 -10.35784084 16.94737581 -4.4375 6 C-3.07652826 3.62571908 -1.94585866 1.94585866 0 0 Z " fill="#7D2D31" transform="translate(40,101)"/>
<path d="M0 0 C0.81322429 2.32632023 1.15052464 3.57077424 0.32250977 5.93188477 C-0.05075439 6.59502686 -0.42401855 7.25816895 -0.80859375 7.94140625 C-1.22254395 8.68535645 -1.63649414 9.42930664 -2.06298828 10.19580078 C-2.51657715 10.97681152 -2.97016602 11.75782227 -3.4375 12.5625 C-3.89108887 13.36155762 -4.34467773 14.16061523 -4.81201172 14.98388672 C-8.4658622 21.31833594 -12.46860977 27.25348836 -17 33 C-17.99 32.67 -18.98 32.34 -20 32 C-18.58553805 27.49943923 -16.33859484 25.2609531 -13 22 C-8.52043068 16.45948005 -5.54042429 10.29407656 -2.453125 3.9140625 C-1 1 -1 1 0 0 Z " fill="#701D22" transform="translate(63,56)"/>
<path d="M0 0 C0.9435441 2.53899138 1.16906025 3.60909275 0.07421875 6.140625 C-0.38339844 6.83671875 -0.84101562 7.5328125 -1.3125 8.25 C-1.76238281 8.95640625 -2.21226563 9.6628125 -2.67578125 10.390625 C-3.11277344 10.92171875 -3.54976562 11.4528125 -4 12 C-4.66 12 -5.32 12 -6 12 C-6.33 12.99 -6.66 13.98 -7 15 C-7.99 15.495 -7.99 15.495 -9 16 C-9.33 16.99 -9.66 17.98 -10 19 C-11.77734375 20.71875 -11.77734375 20.71875 -13.9375 22.5 C-16.50975192 24.62876021 -18.12260763 26.18391145 -20 29 C-20.99 28.67 -21.98 28.34 -23 28 C-22.32195313 27.28457031 -21.64390625 26.56914063 -20.9453125 25.83203125 C-13.33193445 17.71192085 -6.1835778 9.2753667 0 0 Z " fill="#67171D" transform="translate(64,71)"/>
<path d="M0 0 C0.99 0.33 1.98 0.66 3 1 C6.08134832 8.63961877 7.62171943 16.79131165 8 25 C7.34 25 6.68 25 6 25 C4.68 19.39 3.36 13.78 2 8 C1.67 9.65 1.34 11.3 1 13 C0.34 12.67 -0.32 12.34 -1 12 C-1.02687279 10.18757948 -1.04633715 8.37504767 -1.0625 6.5625 C-1.07410156 5.55316406 -1.08570312 4.54382812 -1.09765625 3.50390625 C-1 1 -1 1 0 0 Z " fill="#7C2F3B" transform="translate(79,32)"/>
<path d="M0 0 C0.99 0 1.98 0 3 0 C2.88487847 1.72985242 2.75744323 3.45888751 2.625 5.1875 C2.55539063 6.15042969 2.48578125 7.11335938 2.4140625 8.10546875 C1.99784147 11.01508938 1.20125904 13.32890774 0 16 C0.66 16.33 1.32 16.66 2 17 C1.67 17.99 1.34 18.98 1 20 C-2.5625 21.1875 -2.5625 21.1875 -6 22 C-5.70222656 21.42636719 -5.40445313 20.85273437 -5.09765625 20.26171875 C-1.9084579 13.69038122 -0.57513352 7.24668235 0 0 Z " fill="#741B1F" transform="translate(104,99)"/>
<path d="M0 0 C0.33 0 0.66 0 1 0 C1.46885261 6.5639366 0.35888303 10.39824991 -3 16 C-3.42023438 16.71800781 -3.84046875 17.43601562 -4.2734375 18.17578125 C-6.27234547 21.48912265 -8.17040098 24.33443571 -11 27 C-11 22.39737025 -9.5112884 20.07699666 -7.1875 16.3125 C-4.0108621 10.9926051 -1.65793001 6.00999627 0 0 Z " fill="#6C1C22" transform="translate(77,45)"/>
<path d="M0 0 C0.99 0.66 1.98 1.32 3 2 C3.3984375 4.71484375 3.3984375 4.71484375 3.375 7.9375 C3.38273437 8.99839844 3.39046875 10.05929688 3.3984375 11.15234375 C2.9649703 14.25035934 2.44419658 15.14422111 0 17 C0 15.35 0 13.7 0 12 C-0.33 12.66 -0.66 13.32 -1 14 C-1.66 14 -2.32 14 -3 14 C-2.01 9.38 -1.02 4.76 0 0 Z " fill="#7B3C41" transform="translate(73,11)"/>
<path d="M0 0 C0.99 0.33 1.98 0.66 3 1 C-0.16430144 4.88757034 -3.40581871 8.49567324 -7 12 C-7.928125 12.928125 -8.85625 13.85625 -9.8125 14.8125 C-10.534375 15.534375 -11.25625 16.25625 -12 17 C-12 12.92485275 -10.44507745 11.98720336 -7.6875 9.0625 C-4.94774847 6.13745126 -2.33663931 3.25919592 0 0 Z " fill="#701E25" transform="translate(65,33)"/>
<path d="M0 0 C0.99 0.33 1.98 0.66 3 1 C3.72112977 2.64383518 4.37999674 4.3154175 5 6 C6.00041576 7.63021117 7.04239953 9.23566888 8.125 10.8125 C8.66382813 11.60269531 9.20265625 12.39289063 9.7578125 13.20703125 C10.16773438 13.79871094 10.57765625 14.39039063 11 15 C9.19921875 14.80078125 9.19921875 14.80078125 7 14 C5.33203125 11.85546875 5.33203125 11.85546875 3.8125 9.1875 C3.30332031 8.31480469 2.79414062 7.44210938 2.26953125 6.54296875 C1.15989805 4.32028809 0.46919536 2.42511816 0 0 Z " fill="#742429" transform="translate(33,141)"/>
<path d="M0 0 C2.3138746 3.4708119 2.05137178 4.99056038 1.41015625 9 C0.88431263 11.56411363 0.28139805 13.70697191 -1 16 C-3.125 17.3125 -3.125 17.3125 -5 18 C-4.71125 17.29875 -4.4225 16.5975 -4.125 15.875 C-2.048794 10.56914023 -0.68122343 5.67686193 0 0 Z " fill="#7D2B2E" transform="translate(96,72)"/>
<path d="M0 0 C0.66 0.33 1.32 0.66 2 1 C1.67386719 1.49628906 1.34773438 1.99257812 1.01171875 2.50390625 C-1.80691479 6.88567579 -4.08254414 11.15590098 -6 16 C-6.33 16 -6.66 16 -7 16 C-6.526248 9.13059607 -5.00586573 5.00586573 0 0 Z " fill="#7E3338" transform="translate(68,154)"/>
<path d="M0 0 C0.33 0.66 0.66 1.32 1 2 C1.99 2.33 2.98 2.66 4 3 C4.68132451 4.66072849 5.34742127 6.327767 6 8 C6.99 8.66 7.98 9.32 9 10 C9 10.66 9 11.32 9 12 C7.68 12 6.36 12 5 12 C4.15885829 10.56705502 3.32734313 9.12845595 2.5 7.6875 C1.80390625 6.48673828 1.80390625 6.48673828 1.09375 5.26171875 C0 3 0 3 0 0 Z " fill="#6B2327" transform="translate(88,158)"/>
<path d="M0 0 C0.66 0.33 1.32 0.66 2 1 C1.67 4.96 1.34 8.92 1 13 C0.34 12.67 -0.32 12.34 -1 12 C-1.02687279 10.18757948 -1.04633715 8.37504767 -1.0625 6.5625 C-1.07410156 5.55316406 -1.08570312 4.54382812 -1.09765625 3.50390625 C-1 1 -1 1 0 0 Z " fill="#7E2E35" transform="translate(79,32)"/>
<path d="M0 0 C0.66 0.99 1.32 1.98 2 3 C0.35 5.31 -1.3 7.62 -3 10 C-3.66 9.67 -4.32 9.34 -5 9 C-3.50163895 5.88801935 -1.80066242 2.9465385 0 0 Z " fill="#601819" transform="translate(70,62)"/>
<path d="M0 0 C1.9451 2.91765 2.45276317 4.62537285 3 8 C1.35 9.32 -0.3 10.64 -2 12 C-2.33 10.35 -2.66 8.7 -3 7 C-2.34 7 -1.68 7 -1 7 C-0.67 4.69 -0.34 2.38 0 0 Z " fill="#700F12" transform="translate(80,37)"/>
<path d="M0 0 C2.35953094 2.35953094 2.49141413 3.77895617 3 7 C3.66 7 4.32 7 5 7 C5 7.66 5 8.32 5 9 C4.01 9.33 3.02 9.66 2 10 C-0.09350689 6.5980513 -0.17942163 3.94727588 0 0 Z " fill="#74282C" transform="translate(40,82)"/>
<path d="M0 0 C1 3 1 3 0.22265625 4.82421875 C-0.8515625 6.54947917 -1.92578125 8.27473958 -3 10 C-3.33 10 -3.66 10 -4 10 C-3.38461538 3.47692308 -3.38461538 3.47692308 -1.4375 1.0625 C-0.7259375 0.5365625 -0.7259375 0.5365625 0 0 Z " fill="#77262A" transform="translate(40,101)"/>
<path d="M0 0 C0.66 0 1.32 0 2 0 C5.125 6.625 5.125 6.625 4 10 C1.16625119 6.79663178 0.4794463 4.21912747 0 0 Z " fill="#7A3538" transform="translate(112,105)"/>
<path d="M0 0 C0.66 0 1.32 0 2 0 C3.60725635 3.21451269 3.05748185 6.43612536 3 10 C0.70366176 6.55549263 0.45983515 4.06187717 0 0 Z " fill="#8C444B" transform="translate(80,33)"/>
<path d="M0 0 C0.66 0 1.32 0 2 0 C0.87548273 2.9719385 -0.22293791 5.33440687 -2 8 C-2.66 8 -3.32 8 -4 8 C-2.87548273 5.0280615 -1.77706209 2.66559313 0 0 Z " fill="#7B2B2F" transform="translate(70,25)"/>
<path d="M0 0 C0 3 0 3 -1.875 5.1875 C-4 7 -4 7 -6 7 C-4.60667426 3.63279613 -3.0210714 2.0140476 0 0 Z " fill="#741821" transform="translate(93,88)"/>
<path d="M0 0 C0.99 0.33 1.98 0.66 3 1 C0.525 4.465 0.525 4.465 -2 8 C-2.33 7.34 -2.66 6.68 -3 6 C-2.06553465 3.96855359 -1.06775224 1.96466413 0 0 Z " fill="#651A25" transform="translate(51,77)"/>
</svg>
